<svg t="1575370763183" class="icon" viewBox="0 0 1024 1024" version="1.1" xmlns="http://www.w3.org/2000/svg" p-id="3343" width="200" height="200"><path d="M416.15 620.61l-0.24 81.45-138.45-79.93 70.84-41.17 67.85 39.65z" fill="#c86c61" p-id="3344"></path><path d="M604.94 869.98l-0.1 35.28-93.92 54.59 0.43-143.92 93.59 54.05z" fill="#c86c61" p-id="3345"></path><path d="M386.65 543.83l-108.79-62.78 69.93-40.65 38.86 103.43z" fill="#c86c61" p-id="3346"></path><path d="M582.74 715.86l-71.23 41.39 1.04-81.92 70.19 40.53z" fill="#c86c61" p-id="3347"></path><path d="M744.67 783.05l-93.92 54.58-45.65-26.36-43.01-24.81-50.58-29.21 71.23-41.39L651 755.25l22.67-13.19 71 40.99z" fill="#c86c61" p-id="3348"></path><path d="M744.67 783.05l-0.16 58.71-93.91 54.58 0.15-58.71 93.92-54.58z" fill="#c86c61" p-id="3349"></path><path d="M535.65 428.38L464.23 546.9l-14.07-39.98-15.54-44.18-98.93-281.22 93.92-54.58 106.04 301.44z" fill="#c86c61" p-id="3350"></path><path d="M429.61 126.94l-93.92 54.58-108.78-62.81 93.91-54.55 108.79 62.78zM745.07 641.96l-93.92 54.58-45.33-26.17-42.5-24.54-21.75-12.56 93.91-54.58 109.59 63.27z" fill="#c86c61" p-id="3351"></path><path d="M745.07 641.96l-0.16 58.71-71.24 41.39L651 755.25l0.07-26.22 0.08-32.49 93.92-54.58z" fill="#c86c61" p-id="3352"></path><path d="M605.82 670.37l45.33 26.17-0.08 32.49-0.07 26.22-68.26-39.39-70.19-40.53-1.04 81.92 50.58 29.21 43.01 24.81 45.65 26.36-0.15 58.71-45.66-26.36-93.59-54.05-0.43 143.92-95.59-55.2 0.42-143.91-138.45-79.92 0.16-58.69 138.45 79.93 0.24-81.45-67.85-39.65-70.6-41.23 0.16-58.68 108.79 62.78-38.86-103.43-120.88-321.69 108.78 62.81 98.93 281.22 15.54 44.18 14.07 39.98 71.42-118.52 58.77-97.48 108.76 62.79-161.61 239.58 21.75 12.56 42.5 24.54z" fill="#c86c61" p-id="3353"></path><path d="M797.09 339.13L635.48 578.69l-93.91 54.58 161.61-239.58 93.91-54.56z" fill="#c86c61" p-id="3354"></path><path d="M797.09 339.13l-93.91 54.56-108.76-62.79 93.91-54.58 108.76 62.81z" fill="#c86c61" p-id="3355"></path></svg>